<?xml version="1.0" encoding="UTF-8" standalone="no"?>
<svg
   width="48"
   height="48"
   viewBox="0 0 48 48"
   fill="none"
   version="1.1"
   id="svg1"
   sodipodi:docname="quick_ssh.svg"
   inkscape:version="1.4.4 (dcaf3e7d9e, 2026-05-05)"
   xmlns:inkscape="http://www.inkscape.org/namespaces/inkscape"
   xmlns:sodipodi="http://sodipodi.sourceforge.net/DTD/sodipodi-0.dtd"
   xmlns="http://www.w3.org/2000/svg"
   xmlns:svg="http://www.w3.org/2000/svg">
  <defs
     id="defs1">
    <rect
       x="9.1118644"
       y="10.413559"
       width="35.79661"
       height="29.938983"
       id="rect2" />
  </defs>
  <sodipodi:namedview
     id="namedview1"
     pagecolor="#ffffff"
     bordercolor="#000000"
     borderopacity="0.25"
     inkscape:showpageshadow="2"
     inkscape:pageopacity="0.0"
     inkscape:pagecheckerboard="0"
     inkscape:deskcolor="#d1d1d1"
     inkscape:zoom="18.4375"
     inkscape:cx="22.99661"
     inkscape:cy="25.789831"
     inkscape:window-width="2752"
     inkscape:window-height="1094"
     inkscape:window-x="0"
     inkscape:window-y="0"
     inkscape:window-maximized="1"
     inkscape:current-layer="text1" />
  <g
     id="text1"
     style="font-size:18.6667px;text-align:center;text-anchor:middle;fill:#000000"
     aria-label="&gt; _&#10;SSH">
    <path
       d="m 27.003906,19.544922 c 0,0.746745 0,1.493489 0,2.240234 3.136068,0 6.272135,0 9.408203,0 0,-0.746745 0,-1.493489 0,-2.240234 -3.136068,0 -6.272135,0 -9.408203,0 z"
       style="font-weight:900;font-family:'Noto Sans';-inkscape-font-specification:'Noto Sans Heavy'"
       id="path3" />
    <path
       d="m 12.087891,6.4414062 c 0,0.9023438 0,1.8046875 0,2.7070313 1.885417,0.8587235 3.770833,1.7174475 5.65625,2.5761715 -1.885417,0.764974 -3.770833,1.529948 -5.65625,2.294922 0,0.896484 0,1.792969 0,2.689453 3.074219,-1.36263 6.148437,-2.72526 9.222656,-4.08789 0,-0.522787 0,-1.045573 0,-1.56836 C 18.236328,9.5156247 15.16211,7.9785155 12.087891,6.4414062 Z"
       style="font-weight:900;font-family:'Noto Sans';-inkscape-font-specification:'Noto Sans Heavy'"
       id="path2" />
    <path
       d="m 28.869141,28.337891 c 0,4.442708 0,8.885417 0,13.328125 1.207682,0 2.415364,0 3.623046,0 0,-1.810547 0,-3.621094 0,-5.431641 1.393229,0 2.786459,0 4.179688,0 0,1.810547 0,3.621094 0,5.431641 1.207031,0 2.414063,0 3.621094,0 0,-4.442708 0,-8.885417 0,-13.328125 -1.207031,0 -2.414063,0 -3.621094,0 0,1.649088 0,3.298177 0,4.947265 -1.393229,0 -2.786459,0 -4.179688,0 0,-1.649088 0,-3.298177 0,-4.947265 -1.207682,0 -2.415364,0 -3.623046,0 z"
       style="font-weight:900;font-family:'Noto Sans';-inkscape-font-specification:'Noto Sans Heavy'"
       id="path9" />
    <path
       d="m 22.597656,28.150391 c -1.490628,0.0064 -3.138811,0.334308 -4.176458,1.492631 -0.946797,1.038605 -1.018071,2.610505 -0.624039,3.896733 0.404007,1.217202 1.559675,1.924583 2.647538,2.461663 0.836228,0.429387 1.75773,0.726676 2.50504,1.308728 0.554922,0.490954 0.16645,1.416308 -0.518648,1.522394 -1.129809,0.23451 -2.299519,-0.03983 -3.381442,-0.37908 -0.537181,-0.179594 -1.060694,-0.399382 -1.567225,-0.652679 0,1.070313 0,2.140625 0,3.210938 1.301069,0.662245 2.775265,0.869129 4.221083,0.839268 1.44694,0.01092 2.990203,-0.363834 4.011362,-1.452439 1.225717,-1.288719 1.507985,-3.459303 0.474108,-4.942816 -0.995498,-1.319693 -2.661666,-1.778229 -4.070236,-2.506533 -0.460621,-0.251384 -1.104383,-0.618424 -0.956473,-1.243115 0.187013,-0.672251 1.017894,-0.708701 1.593873,-0.672202 1.029833,0.08343 2.019389,0.436882 2.958705,0.850888 0.367187,-0.927083 0.734375,-1.854167 1.101562,-2.78125 -1.327062,-0.583302 -2.759342,-0.978376 -4.21875,-0.953129 z"
       style="font-weight:900;font-family:'Noto Sans';-inkscape-font-specification:'Noto Sans Heavy'"
       id="path8" />
    <path
       d="m 11.828125,28.150391 c -1.490544,0.0066 -3.1397967,0.332861 -4.1765862,1.492631 -0.9467922,1.038762 -1.0170329,2.610036 -0.6255586,3.896733 0.4200804,1.262723 1.6406246,1.968753 2.7659486,2.520728 0.8013752,0.399964 1.6752882,0.694026 2.3863232,1.249663 0.553773,0.490166 0.168961,1.416648 -0.516694,1.522394 -1.106186,0.231326 -2.2522994,-0.0313 -3.3145105,-0.35639 -0.5606757,-0.183658 -1.1065626,-0.411523 -1.6341569,-0.675369 0,1.070313 0,2.140625 0,3.210938 1.300486,0.661867 2.773945,0.869086 4.2191294,0.839268 1.424281,0.0091 2.939166,-0.349461 3.962511,-1.401068 1.269871,-1.281217 1.56884,-3.491133 0.52296,-4.994187 -0.995498,-1.319694 -2.661666,-1.778228 -4.070236,-2.506533 -0.460455,-0.251359 -1.104783,-0.618502 -0.956167,-1.243115 0.188938,-0.670842 1.017387,-0.709363 1.593747,-0.672202 1.030468,0.08309 2.020649,0.43659 2.960478,0.850888 0.366536,-0.927083 0.733073,-1.854167 1.099609,-2.78125 -1.32625,-0.583836 -2.75799,-0.978365 -4.216797,-0.953129 z"
       style="font-weight:900;font-family:'Noto Sans';-inkscape-font-specification:'Noto Sans Heavy'"
       id="path7" />
  </g>
</svg>
